<?xml version="1.0"?>
<svg version="1.1" xmlns="http://www.w3.org/2000/svg" xmlns:xlink="http://www.w3.org/1999/xlink" width="120" height="120">
    <desc iVinci="yes" version="4.6" gridStep="20" showGrid="no" snapToGrid="no" codePlatform="0"/>
    <g id="Layer1" name="Layer 1" opacity="1">
        <g id="Shape1">
            <desc shapeID="1" type="0" basicInfo-basicType="4" basicInfo-roundedRectRadius="12" basicInfo-polygonSides="6" basicInfo-starPoints="5" bounding="rect(-126.944,-126.944,253.888,253.888)" text="" font-familyName="Helvetica" font-pixelSize="20" font-bold="0" font-underline="0" font-alignment="1" strokeStyle="0" markerStart="0" markerEnd="0" shadowEnabled="0" shadowOffsetX="0" shadowOffsetY="2" shadowBlur="4" shadowOpacity="160" blurEnabled="0" blurRadius="4" transform="matrix(0.399593,0,0,0.399593,59.9998,60)" pers-center="0,0" pers-size="0,0" pers-start="0,0" pers-end="0,0" locked="0" mesh="" flag=""/>
            <path id="shapePath1" d="M9.274,60 C9.274,31.985 31.9848,9.27399 60.0002,9.27399 C88.015,9.27399 110.726,31.985 110.726,60 C110.726,88.015 88.015,110.726 60.0002,110.726 C31.9848,110.726 9.274,88.015 9.274,60 Z" style="stroke:none;fill-rule:evenodd;fill:#000000;fill-opacity:1;"/>
        </g>
        <g id="Shape2">
            <desc shapeID="2" type="0" basicInfo-basicType="4" basicInfo-roundedRectRadius="12" basicInfo-polygonSides="6" basicInfo-starPoints="5" bounding="rect(-15.784,-15.7838,31.5679,31.5674)" text="" font-familyName="Helvetica" font-pixelSize="20" font-bold="0" font-underline="0" font-alignment="1" strokeStyle="0" markerStart="0" markerEnd="0" shadowEnabled="0" shadowOffsetX="0" shadowOffsetY="2" shadowBlur="4" shadowOpacity="160" blurEnabled="0" blurRadius="4" transform="matrix(0.206067,0,0,0.206067,59.9997,46.9905)" pers-center="0,0" pers-size="0,0" pers-start="0,0" pers-end="0,0" locked="0" mesh="" flag=""/>
            <path id="shapePath2" d="M56.7471,46.99 C56.7471,45.194 58.2032,43.738 60.0002,43.738 C61.7962,43.738 63.2522,45.194 63.2522,46.99 C63.2522,48.786 61.7962,50.243 60.0002,50.243 C58.2032,50.243 56.7471,48.786 56.7471,46.99 Z" style="stroke:none;fill-rule:evenodd;fill:#666666;fill-opacity:1;"/>
        </g>
        <g id="Shape3">
            <desc shapeID="3" type="0" basicInfo-basicType="4" basicInfo-roundedRectRadius="12" basicInfo-polygonSides="6" basicInfo-starPoints="5" bounding="rect(-15.784,-15.7837,31.5679,31.5674)" text="" font-familyName="Helvetica" font-pixelSize="20" font-bold="0" font-underline="0" font-alignment="1" strokeStyle="0" markerStart="0" markerEnd="0" shadowEnabled="0" shadowOffsetX="0" shadowOffsetY="2" shadowBlur="4" shadowOpacity="160" blurEnabled="0" blurRadius="4" transform="matrix(0.206067,0,0,0.206067,59.9997,60.0005)" pers-center="0,0" pers-size="0,0" pers-start="0,0" pers-end="0,0" locked="0" mesh="" flag=""/>
            <path id="shapePath3" d="M56.7471,60 C56.7471,58.204 58.2032,56.748 60.0002,56.748 C61.7962,56.748 63.2522,58.204 63.2522,60 C63.2522,61.797 61.7962,63.253 60.0002,63.253 C58.2032,63.253 56.7471,61.797 56.7471,60 Z" style="stroke:none;fill-rule:evenodd;fill:#ffffff;fill-opacity:1;"/>
        </g>
        <g id="Shape4">
            <desc shapeID="4" type="0" basicInfo-basicType="4" basicInfo-roundedRectRadius="12" basicInfo-polygonSides="6" basicInfo-starPoints="5" bounding="rect(-15.784,-15.7837,31.5679,31.5674)" text="" font-familyName="Helvetica" font-pixelSize="20" font-bold="0" font-underline="0" font-alignment="1" strokeStyle="0" markerStart="0" markerEnd="0" shadowEnabled="0" shadowOffsetX="0" shadowOffsetY="2" shadowBlur="4" shadowOpacity="160" blurEnabled="0" blurRadius="4" transform="matrix(0.206067,0,0,0.206067,59.9997,73.0105)" pers-center="0,0" pers-size="0,0" pers-start="0,0" pers-end="0,0" locked="0" mesh="" flag=""/>
            <path id="shapePath4" d="M56.7471,73.01 C56.7471,71.214 58.2032,69.758 60.0002,69.758 C61.7962,69.758 63.2522,71.214 63.2522,73.01 C63.2522,74.807 61.7962,76.263 60.0002,76.263 C58.2032,76.263 56.7471,74.807 56.7471,73.01 Z" style="stroke:none;fill-rule:evenodd;fill:#60c030;fill-opacity:1;"/>
        </g>
        <g id="Shape5">
            <desc shapeID="5" type="0" basicInfo-basicType="4" basicInfo-roundedRectRadius="12" basicInfo-polygonSides="6" basicInfo-starPoints="5" bounding="rect(-15.784,-15.7837,31.5679,31.5674)" text="" font-familyName="Helvetica" font-pixelSize="20" font-bold="0" font-underline="0" font-alignment="1" strokeStyle="0" markerStart="0" markerEnd="0" shadowEnabled="0" shadowOffsetX="0" shadowOffsetY="2" shadowBlur="4" shadowOpacity="160" blurEnabled="0" blurRadius="4" transform="matrix(0.206067,0,0,0.206067,59.9997,86.0205)" pers-center="0,0" pers-size="0,0" pers-start="0,0" pers-end="0,0" locked="0" mesh="" flag=""/>
            <path id="shapePath5" d="M56.7471,86.021 C56.7471,84.224 58.2032,82.768 60.0002,82.768 C61.7962,82.768 63.2522,84.224 63.2522,86.021 C63.2522,87.817 61.7962,89.273 60.0002,89.273 C58.2032,89.273 56.7471,87.817 56.7471,86.021 Z" style="stroke:none;fill-rule:evenodd;fill:#60c030;fill-opacity:1;"/>
        </g>
        <g id="Shape6">
            <desc shapeID="6" type="0" basicInfo-basicType="4" basicInfo-roundedRectRadius="12" basicInfo-polygonSides="6" basicInfo-starPoints="5" bounding="rect(-15.784,-15.7837,31.5679,31.5674)" text="" font-familyName="Helvetica" font-pixelSize="20" font-bold="0" font-underline="0" font-alignment="1" strokeStyle="0" markerStart="0" markerEnd="0" shadowEnabled="0" shadowOffsetX="0" shadowOffsetY="2" shadowBlur="4" shadowOpacity="160" blurEnabled="0" blurRadius="4" transform="matrix(0.206067,0,0,0.206067,33.9796,60.0005)" pers-center="0,0" pers-size="0,0" pers-start="0,0" pers-end="0,0" locked="0" mesh="" flag=""/>
            <path id="shapePath6" d="M30.727,60 C30.727,58.204 32.1832,56.748 33.9795,56.748 C35.7759,56.748 37.2321,58.204 37.2321,60 C37.2321,61.797 35.7759,63.253 33.9795,63.253 C32.1832,63.253 30.727,61.797 30.727,60 Z" style="stroke:none;fill-rule:evenodd;fill:#60c030;fill-opacity:1;"/>
        </g>
        <g id="Shape7">
            <desc shapeID="7" type="0" basicInfo-basicType="4" basicInfo-roundedRectRadius="12" basicInfo-polygonSides="6" basicInfo-starPoints="5" bounding="rect(-15.7838,-15.7837,31.5674,31.5674)" text="" font-familyName="Helvetica" font-pixelSize="20" font-bold="0" font-underline="0" font-alignment="1" strokeStyle="0" markerStart="0" markerEnd="0" shadowEnabled="0" shadowOffsetX="0" shadowOffsetY="2" shadowBlur="4" shadowOpacity="160" blurEnabled="0" blurRadius="4" transform="matrix(0.206067,0,0,0.206067,86.0195,73.0105)" pers-center="0,0" pers-size="0,0" pers-start="0,0" pers-end="0,0" locked="0" mesh="" flag=""/>
            <path id="shapePath7" d="M82.767,73.01 C82.767,71.214 84.223,69.758 86.02,69.758 C87.816,69.758 89.272,71.214 89.272,73.01 C89.272,74.807 87.816,76.263 86.02,76.263 C84.223,76.263 82.767,74.807 82.767,73.01 Z" style="stroke:none;fill-rule:evenodd;fill:#ffffff;fill-opacity:1;"/>
        </g>
        <g id="Shape8">
            <desc shapeID="8" type="0" basicInfo-basicType="4" basicInfo-roundedRectRadius="12" basicInfo-polygonSides="6" basicInfo-starPoints="5" bounding="rect(-15.784,-15.7838,31.5679,31.5674)" text="" font-familyName="Helvetica" font-pixelSize="20" font-bold="0" font-underline="0" font-alignment="1" strokeStyle="0" markerStart="0" markerEnd="0" shadowEnabled="0" shadowOffsetX="0" shadowOffsetY="2" shadowBlur="4" shadowOpacity="160" blurEnabled="0" blurRadius="4" transform="matrix(0.206067,0,0,0.206067,33.9796,46.9905)" pers-center="0,0" pers-size="0,0" pers-start="0,0" pers-end="0,0" locked="0" mesh="" flag=""/>
            <path id="shapePath8" d="M30.727,46.99 C30.727,45.194 32.1832,43.738 33.9795,43.738 C35.7759,43.738 37.2321,45.194 37.2321,46.99 C37.2321,48.786 35.7759,50.243 33.9795,50.243 C32.1832,50.243 30.727,48.786 30.727,46.99 Z" style="stroke:none;fill-rule:evenodd;fill:#60c030;fill-opacity:1;"/>
        </g>
        <g id="Shape9">
            <desc shapeID="9" type="0" basicInfo-basicType="4" basicInfo-roundedRectRadius="12" basicInfo-polygonSides="6" basicInfo-starPoints="5" bounding="rect(-15.784,-15.7837,31.5679,31.5674)" text="" font-familyName="Helvetica" font-pixelSize="20" font-bold="0" font-underline="0" font-alignment="1" strokeStyle="0" markerStart="0" markerEnd="0" shadowEnabled="0" shadowOffsetX="0" shadowOffsetY="2" shadowBlur="4" shadowOpacity="160" blurEnabled="0" blurRadius="4" transform="matrix(0.206067,0,0,0.206067,33.9796,73.0105)" pers-center="0,0" pers-size="0,0" pers-start="0,0" pers-end="0,0" locked="0" mesh="" flag=""/>
            <path id="shapePath9" d="M30.727,73.01 C30.727,71.214 32.1832,69.758 33.9795,69.758 C35.7759,69.758 37.2321,71.214 37.2321,73.01 C37.2321,74.807 35.7759,76.263 33.9795,76.263 C32.1832,76.263 30.727,74.807 30.727,73.01 Z" style="stroke:none;fill-rule:evenodd;fill:#60c030;fill-opacity:1;"/>
        </g>
        <g id="Shape10">
            <desc shapeID="10" type="0" basicInfo-basicType="4" basicInfo-roundedRectRadius="12" basicInfo-polygonSides="6" basicInfo-starPoints="5" bounding="rect(-15.784,-15.7837,31.5679,31.5674)" text="" font-familyName="Helvetica" font-pixelSize="20" font-bold="0" font-underline="0" font-alignment="1" strokeStyle="0" markerStart="0" markerEnd="0" shadowEnabled="0" shadowOffsetX="0" shadowOffsetY="2" shadowBlur="4" shadowOpacity="160" blurEnabled="0" blurRadius="4" transform="matrix(0.206067,0,0,0.206067,33.9796,86.0205)" pers-center="0,0" pers-size="0,0" pers-start="0,0" pers-end="0,0" locked="0" mesh="" flag=""/>
            <path id="shapePath10" d="M30.727,86.021 C30.727,84.224 32.1832,82.768 33.9795,82.768 C35.7759,82.768 37.2321,84.224 37.2321,86.021 C37.2321,87.817 35.7759,89.273 33.9795,89.273 C32.1832,89.273 30.727,87.817 30.727,86.021 Z" style="stroke:none;fill-rule:evenodd;fill:#60c030;fill-opacity:1;"/>
        </g>
        <g id="Shape11">
            <desc shapeID="11" type="0" basicInfo-basicType="4" basicInfo-roundedRectRadius="12" basicInfo-polygonSides="6" basicInfo-starPoints="5" bounding="rect(-15.7838,-15.7838,31.5674,31.5674)" text="" font-familyName="Helvetica" font-pixelSize="20" font-bold="0" font-underline="0" font-alignment="1" strokeStyle="0" markerStart="0" markerEnd="0" shadowEnabled="0" shadowOffsetX="0" shadowOffsetY="2" shadowBlur="4" shadowOpacity="160" blurEnabled="0" blurRadius="4" transform="matrix(0.206067,0,0,0.206067,86.0195,46.9905)" pers-center="0,0" pers-size="0,0" pers-start="0,0" pers-end="0,0" locked="0" mesh="" flag=""/>
            <path id="shapePath11" d="M82.767,46.99 C82.767,45.194 84.223,43.738 86.02,43.738 C87.816,43.738 89.272,45.194 89.272,46.99 C89.272,48.786 87.816,50.243 86.02,50.243 C84.223,50.243 82.767,48.786 82.767,46.99 Z" style="stroke:none;fill-rule:evenodd;fill:#ffffff;fill-opacity:1;"/>
        </g>
        <g id="Shape12">
            <desc shapeID="12" type="0" basicInfo-basicType="4" basicInfo-roundedRectRadius="12" basicInfo-polygonSides="6" basicInfo-starPoints="5" bounding="rect(-15.7838,-15.7837,31.5674,31.5674)" text="" font-familyName="Helvetica" font-pixelSize="20" font-bold="0" font-underline="0" font-alignment="1" strokeStyle="0" markerStart="0" markerEnd="0" shadowEnabled="0" shadowOffsetX="0" shadowOffsetY="2" shadowBlur="4" shadowOpacity="160" blurEnabled="0" blurRadius="4" transform="matrix(0.206067,0,0,0.206067,86.0195,60.0005)" pers-center="0,0" pers-size="0,0" pers-start="0,0" pers-end="0,0" locked="0" mesh="" flag=""/>
            <path id="shapePath12" d="M82.767,60 C82.767,58.204 84.223,56.748 86.02,56.748 C87.816,56.748 89.272,58.204 89.272,60 C89.272,61.797 87.816,63.253 86.02,63.253 C84.223,63.253 82.767,61.797 82.767,60 Z" style="stroke:none;fill-rule:evenodd;fill:#ffffff;fill-opacity:1;"/>
        </g>
        <g id="Shape13">
            <desc shapeID="13" type="0" basicInfo-basicType="4" basicInfo-roundedRectRadius="12" basicInfo-polygonSides="6" basicInfo-starPoints="5" bounding="rect(-15.7838,-15.7837,31.5674,31.5674)" text="" font-familyName="Helvetica" font-pixelSize="20" font-bold="0" font-underline="0" font-alignment="1" strokeStyle="0" markerStart="0" markerEnd="0" shadowEnabled="0" shadowOffsetX="0" shadowOffsetY="2" shadowBlur="4" shadowOpacity="160" blurEnabled="0" blurRadius="4" transform="matrix(0.206067,0,0,0.206067,86.0195,86.0205)" pers-center="0,0" pers-size="0,0" pers-start="0,0" pers-end="0,0" locked="0" mesh="" flag=""/>
            <path id="shapePath13" d="M82.767,86.021 C82.767,84.224 84.223,82.768 86.02,82.768 C87.816,82.768 89.272,84.224 89.272,86.021 C89.272,87.817 87.816,89.273 86.02,89.273 C84.223,89.273 82.767,87.817 82.767,86.021 Z" style="stroke:none;fill-rule:evenodd;fill:#ffffff;fill-opacity:1;"/>
        </g>
        <g id="Shape14">
            <desc shapeID="14" type="0" basicInfo-basicType="4" basicInfo-roundedRectRadius="12" basicInfo-polygonSides="6" basicInfo-starPoints="5" bounding="rect(-15.784,-15.7862,31.5679,31.5723)" text="" font-familyName="Helvetica" font-pixelSize="20" font-bold="0" font-underline="0" font-alignment="1" strokeStyle="0" markerStart="0" markerEnd="0" shadowEnabled="0" shadowOffsetX="0" shadowOffsetY="2" shadowBlur="4" shadowOpacity="160" blurEnabled="0" blurRadius="4" transform="matrix(0.206067,0,0,0.206067,33.9796,33.98)" pers-center="0,0" pers-size="0,0" pers-start="0,0" pers-end="0,0" locked="0" mesh="" flag=""/>
            <path id="shapePath14" d="M30.727,33.98 C30.727,32.184 32.1832,30.727 33.9795,30.727 C35.7759,30.727 37.2321,32.184 37.2321,33.98 C37.2321,35.776 35.7759,37.233 33.9795,37.233 C32.1832,37.233 30.727,35.776 30.727,33.98 Z" style="stroke:none;fill-rule:evenodd;fill:#60c030;fill-opacity:1;"/>
        </g>
        <g id="Shape15">
            <desc shapeID="15" type="0" basicInfo-basicType="4" basicInfo-roundedRectRadius="12" basicInfo-polygonSides="6" basicInfo-starPoints="5" bounding="rect(-15.784,-15.7862,31.5679,31.5723)" text="" font-familyName="Helvetica" font-pixelSize="20" font-bold="0" font-underline="0" font-alignment="1" strokeStyle="0" markerStart="0" markerEnd="0" shadowEnabled="0" shadowOffsetX="0" shadowOffsetY="2" shadowBlur="4" shadowOpacity="160" blurEnabled="0" blurRadius="4" transform="matrix(0.206067,0,0,0.206067,59.9997,33.98)" pers-center="0,0" pers-size="0,0" pers-start="0,0" pers-end="0,0" locked="0" mesh="" flag=""/>
            <path id="shapePath15" d="M56.7471,33.98 C56.7471,32.184 58.2032,30.727 60.0002,30.727 C61.7962,30.727 63.2522,32.184 63.2522,33.98 C63.2522,35.776 61.7962,37.233 60.0002,37.233 C58.2032,37.233 56.7471,35.776 56.7471,33.98 Z" style="stroke:none;fill-rule:evenodd;fill:#ffffff;fill-opacity:1;"/>
        </g>
        <g id="Shape16">
            <desc shapeID="16" type="0" basicInfo-basicType="4" basicInfo-roundedRectRadius="12" basicInfo-polygonSides="6" basicInfo-starPoints="5" bounding="rect(-15.7838,-15.7862,31.5674,31.5723)" text="" font-familyName="Helvetica" font-pixelSize="20" font-bold="0" font-underline="0" font-alignment="1" strokeStyle="0" markerStart="0" markerEnd="0" shadowEnabled="0" shadowOffsetX="0" shadowOffsetY="2" shadowBlur="4" shadowOpacity="160" blurEnabled="0" blurRadius="4" transform="matrix(0.206067,0,0,0.206067,86.0195,33.98)" pers-center="0,0" pers-size="0,0" pers-start="0,0" pers-end="0,0" locked="0" mesh="" flag=""/>
            <path id="shapePath16" d="M82.767,33.98 C82.767,32.184 84.223,30.727 86.02,30.727 C87.816,30.727 89.272,32.184 89.272,33.98 C89.272,35.776 87.816,37.233 86.02,37.233 C84.223,37.233 82.767,35.776 82.767,33.98 Z" style="stroke:none;fill-rule:evenodd;fill:#ffffff;fill-opacity:1;"/>
        </g>
        <g id="Shape17">
            <desc shapeID="17" type="0" basicInfo-basicType="4" basicInfo-roundedRectRadius="12" basicInfo-polygonSides="6" basicInfo-starPoints="5" bounding="rect(-15.784,-15.7837,31.5679,31.5674)" text="" font-familyName="Helvetica" font-pixelSize="20" font-bold="0" font-underline="0" font-alignment="1" strokeStyle="0" markerStart="0" markerEnd="0" shadowEnabled="0" shadowOffsetX="0" shadowOffsetY="2" shadowBlur="4" shadowOpacity="160" blurEnabled="0" blurRadius="4" transform="matrix(0.206067,0,0,0.206067,46.7738,60.0005)" pers-center="0,0" pers-size="0,0" pers-start="0,0" pers-end="0,0" locked="0" mesh="" flag=""/>
            <path id="shapePath17" d="M43.5212,60 C43.5212,58.204 44.9774,56.748 46.7738,56.748 C48.5701,56.748 50.0263,58.204 50.0263,60 C50.0263,61.797 48.5701,63.253 46.7738,63.253 C44.9774,63.253 43.5212,61.797 43.5212,60 Z" style="stroke:none;fill-rule:evenodd;fill:#60c030;fill-opacity:1;"/>
        </g>
        <g id="Shape18">
            <desc shapeID="18" type="0" basicInfo-basicType="4" basicInfo-roundedRectRadius="12" basicInfo-polygonSides="6" basicInfo-starPoints="5" bounding="rect(-15.7837,-15.7837,31.5674,31.5674)" text="" font-familyName="Helvetica" font-pixelSize="20" font-bold="0" font-underline="0" font-alignment="1" strokeStyle="0" markerStart="0" markerEnd="0" shadowEnabled="0" shadowOffsetX="0" shadowOffsetY="2" shadowBlur="4" shadowOpacity="160" blurEnabled="0" blurRadius="4" transform="matrix(0.206067,0,0,0.206067,46.9897,73.0105)" pers-center="0,0" pers-size="0,0" pers-start="0,0" pers-end="0,0" locked="0" mesh="" flag=""/>
            <path id="shapePath18" d="M43.7372,73.01 C43.7372,71.214 45.1933,69.758 46.9897,69.758 C48.7861,69.758 50.2422,71.214 50.2422,73.01 C50.2422,74.807 48.7861,76.263 46.9897,76.263 C45.1933,76.263 43.7372,74.807 43.7372,73.01 Z" style="stroke:none;fill-rule:evenodd;fill:#666666;fill-opacity:1;"/>
        </g>
        <g id="Shape19">
            <desc shapeID="19" type="0" basicInfo-basicType="4" basicInfo-roundedRectRadius="12" basicInfo-polygonSides="6" basicInfo-starPoints="5" bounding="rect(-15.784,-15.7837,31.5679,31.5674)" text="" font-familyName="Helvetica" font-pixelSize="20" font-bold="0" font-underline="0" font-alignment="1" strokeStyle="0" markerStart="0" markerEnd="0" shadowEnabled="0" shadowOffsetX="0" shadowOffsetY="2" shadowBlur="4" shadowOpacity="160" blurEnabled="0" blurRadius="4" transform="matrix(0.206067,0,0,0.206067,46.7738,86.0205)" pers-center="0,0" pers-size="0,0" pers-start="0,0" pers-end="0,0" locked="0" mesh="" flag=""/>
            <path id="shapePath19" d="M43.5212,86.021 C43.5212,84.224 44.9774,82.768 46.7738,82.768 C48.5701,82.768 50.0263,84.224 50.0263,86.021 C50.0263,87.817 48.5701,89.273 46.7738,89.273 C44.9774,89.273 43.5212,87.817 43.5212,86.021 Z" style="stroke:none;fill-rule:evenodd;fill:#666666;fill-opacity:1;"/>
        </g>
        <g id="Shape20">
            <desc shapeID="20" type="0" basicInfo-basicType="4" basicInfo-roundedRectRadius="12" basicInfo-polygonSides="6" basicInfo-starPoints="5" bounding="rect(-15.784,-15.7838,31.5679,31.5674)" text="" font-familyName="Helvetica" font-pixelSize="20" font-bold="0" font-underline="0" font-alignment="1" strokeStyle="0" markerStart="0" markerEnd="0" shadowEnabled="0" shadowOffsetX="0" shadowOffsetY="2" shadowBlur="4" shadowOpacity="160" blurEnabled="0" blurRadius="4" transform="matrix(0.206067,0,0,0.206067,46.7738,46.9905)" pers-center="0,0" pers-size="0,0" pers-start="0,0" pers-end="0,0" locked="0" mesh="" flag=""/>
            <path id="shapePath20" d="M43.5212,46.99 C43.5212,45.194 44.9774,43.738 46.7737,43.738 C48.5701,43.738 50.0263,45.194 50.0263,46.99 C50.0263,48.787 48.5701,50.243 46.7737,50.243 C44.9774,50.243 43.5212,48.787 43.5212,46.99 Z" style="stroke:none;fill-rule:evenodd;fill:#666666;fill-opacity:1;"/>
        </g>
        <g id="Shape21">
            <desc shapeID="21" type="0" basicInfo-basicType="4" basicInfo-roundedRectRadius="12" basicInfo-polygonSides="6" basicInfo-starPoints="5" bounding="rect(-15.7837,-15.7838,31.5674,31.5674)" text="" font-familyName="Helvetica" font-pixelSize="20" font-bold="0" font-underline="0" font-alignment="1" strokeStyle="0" markerStart="0" markerEnd="0" shadowEnabled="0" shadowOffsetX="0" shadowOffsetY="2" shadowBlur="4" shadowOpacity="160" blurEnabled="0" blurRadius="4" transform="matrix(0.206067,0,0,0.206067,46.9897,33.9795)" pers-center="0,0" pers-size="0,0" pers-start="0,0" pers-end="0,0" locked="0" mesh="" flag=""/>
            <path id="shapePath21" d="M43.7372,33.98 C43.7372,32.184 45.1933,30.727 46.9897,30.727 C48.7861,30.727 50.2422,32.184 50.2422,33.98 C50.2422,35.776 48.7861,37.232 46.9897,37.232 C45.1933,37.232 43.7372,35.776 43.7372,33.98 Z" style="stroke:none;fill-rule:evenodd;fill:#ffffff;fill-opacity:1;"/>
        </g>
        <g id="Shape22">
            <desc shapeID="22" type="0" basicInfo-basicType="4" basicInfo-roundedRectRadius="12" basicInfo-polygonSides="6" basicInfo-starPoints="5" bounding="rect(-15.7837,-15.7862,31.5674,31.5723)" text="" font-familyName="Helvetica" font-pixelSize="20" font-bold="0" font-underline="0" font-alignment="1" strokeStyle="0" markerStart="0" markerEnd="0" shadowEnabled="0" shadowOffsetX="0" shadowOffsetY="2" shadowBlur="4" shadowOpacity="160" blurEnabled="0" blurRadius="4" transform="matrix(0.206067,0,0,0.206067,73.0095,33.98)" pers-center="0,0" pers-size="0,0" pers-start="0,0" pers-end="0,0" locked="0" mesh="" flag=""/>
            <path id="shapePath22" d="M69.757,33.98 C69.757,32.184 71.213,30.727 73.01,30.727 C74.806,30.727 76.262,32.184 76.262,33.98 C76.262,35.776 74.806,37.233 73.01,37.233 C71.213,37.233 69.757,35.776 69.757,33.98 Z" style="stroke:none;fill-rule:evenodd;fill:#ffffff;fill-opacity:1;"/>
        </g>
        <g id="Shape23">
            <desc shapeID="23" type="0" basicInfo-basicType="4" basicInfo-roundedRectRadius="12" basicInfo-polygonSides="6" basicInfo-starPoints="5" bounding="rect(-15.7837,-15.7838,31.5674,31.5674)" text="" font-familyName="Helvetica" font-pixelSize="20" font-bold="0" font-underline="0" font-alignment="1" strokeStyle="0" markerStart="0" markerEnd="0" shadowEnabled="0" shadowOffsetX="0" shadowOffsetY="2" shadowBlur="4" shadowOpacity="160" blurEnabled="0" blurRadius="4" transform="matrix(0.206067,0,0,0.206067,73.0095,46.9905)" pers-center="0,0" pers-size="0,0" pers-start="0,0" pers-end="0,0" locked="0" mesh="" flag=""/>
            <path id="shapePath23" d="M69.757,46.99 C69.757,45.194 71.213,43.738 73.01,43.738 C74.806,43.738 76.262,45.194 76.262,46.99 C76.262,48.786 74.806,50.243 73.01,50.243 C71.213,50.243 69.757,48.786 69.757,46.99 Z" style="stroke:none;fill-rule:evenodd;fill:#666666;fill-opacity:1;"/>
        </g>
        <g id="Shape24">
            <desc shapeID="24" type="0" basicInfo-basicType="4" basicInfo-roundedRectRadius="12" basicInfo-polygonSides="6" basicInfo-starPoints="5" bounding="rect(-15.7837,-15.7837,31.5674,31.5674)" text="" font-familyName="Helvetica" font-pixelSize="20" font-bold="0" font-underline="0" font-alignment="1" strokeStyle="0" markerStart="0" markerEnd="0" shadowEnabled="0" shadowOffsetX="0" shadowOffsetY="2" shadowBlur="4" shadowOpacity="160" blurEnabled="0" blurRadius="4" transform="matrix(0.206067,0,0,0.206067,73.0095,60.0005)" pers-center="0,0" pers-size="0,0" pers-start="0,0" pers-end="0,0" locked="0" mesh="" flag=""/>
            <path id="shapePath24" d="M69.757,60 C69.757,58.204 71.213,56.748 73.01,56.748 C74.806,56.748 76.262,58.204 76.262,60 C76.262,61.797 74.806,63.253 73.01,63.253 C71.213,63.253 69.757,61.797 69.757,60 Z" style="stroke:none;fill-rule:evenodd;fill:#ffffff;fill-opacity:1;"/>
        </g>
        <g id="Shape25">
            <desc shapeID="25" type="0" basicInfo-basicType="4" basicInfo-roundedRectRadius="12" basicInfo-polygonSides="6" basicInfo-starPoints="5" bounding="rect(-15.7837,-15.7837,31.5674,31.5674)" text="" font-familyName="Helvetica" font-pixelSize="20" font-bold="0" font-underline="0" font-alignment="1" strokeStyle="0" markerStart="0" markerEnd="0" shadowEnabled="0" shadowOffsetX="0" shadowOffsetY="2" shadowBlur="4" shadowOpacity="160" blurEnabled="0" blurRadius="4" transform="matrix(0.206067,0,0,0.206067,72.7935,73.0105)" pers-center="0,0" pers-size="0,0" pers-start="0,0" pers-end="0,0" locked="0" mesh="" flag=""/>
            <path id="shapePath25" d="M69.541,73.01 C69.541,71.214 70.997,69.758 72.794,69.758 C74.59,69.758 76.046,71.214 76.046,73.01 C76.046,74.807 74.59,76.263 72.794,76.263 C70.997,76.263 69.541,74.807 69.541,73.01 Z" style="stroke:none;fill-rule:evenodd;fill:#666666;fill-opacity:1;"/>
        </g>
        <g id="Shape26">
            <desc shapeID="26" type="0" basicInfo-basicType="4" basicInfo-roundedRectRadius="12" basicInfo-polygonSides="6" basicInfo-starPoints="5" bounding="rect(-15.7837,-15.7837,31.5674,31.5674)" text="" font-familyName="Helvetica" font-pixelSize="20" font-bold="0" font-underline="0" font-alignment="1" strokeStyle="0" markerStart="0" markerEnd="0" shadowEnabled="0" shadowOffsetX="0" shadowOffsetY="2" shadowBlur="4" shadowOpacity="160" blurEnabled="0" blurRadius="4" transform="matrix(0.206067,0,0,0.206067,73.0095,86.0205)" pers-center="0,0" pers-size="0,0" pers-start="0,0" pers-end="0,0" locked="0" mesh="" flag=""/>
            <path id="shapePath26" d="M69.757,86.021 C69.757,84.224 71.213,82.768 73.01,82.768 C74.806,82.768 76.262,84.224 76.262,86.021 C76.262,87.817 74.806,89.273 73.01,89.273 C71.213,89.273 69.757,87.817 69.757,86.021 Z" style="stroke:none;fill-rule:evenodd;fill:#ffffff;fill-opacity:1;"/>
        </g>
    </g>
</svg>
